<mxfile host="app.diagrams.net" modified="2022-09-20T03:08:32.181Z" agent="5.0 (Macintosh; Intel Mac OS X 10_15_7) AppleWebKit/537.36 (KHTML, like Gecko) Chrome/104.0.0.0 Safari/537.36" etag="Dqc6qfoDZCesqFpGQ2xC" version="20.3.3" type="github" pages="2">
  <diagram id="ofvXL2GoCf3dD_22s4Wm" name="第 1 页">
    <mxGraphModel dx="949" dy="550" grid="1" gridSize="10" guides="1" tooltips="1" connect="1" arrows="1" fold="1" page="1" pageScale="1" pageWidth="1169" pageHeight="827" math="0" shadow="1">
      <root>
        <mxCell id="0" />
        <mxCell id="1" parent="0" />
        <mxCell id="Od82hylRiGXCnDKOlgIq-14" value="" style="edgeStyle=orthogonalEdgeStyle;rounded=1;orthogonalLoop=1;jettySize=auto;html=1;sketch=1;curved=1;" edge="1" parent="1" source="Od82hylRiGXCnDKOlgIq-12" target="Od82hylRiGXCnDKOlgIq-13">
          <mxGeometry relative="1" as="geometry" />
        </mxCell>
        <mxCell id="Od82hylRiGXCnDKOlgIq-12" value="open new project" style="strokeWidth=2;html=1;shape=mxgraph.flowchart.start_1;whiteSpace=wrap;sketch=1;rounded=1;" vertex="1" parent="1">
          <mxGeometry x="260" y="170" width="120" height="40" as="geometry" />
        </mxCell>
        <mxCell id="Od82hylRiGXCnDKOlgIq-16" value="" style="edgeStyle=orthogonalEdgeStyle;rounded=1;orthogonalLoop=1;jettySize=auto;html=1;sketch=1;curved=1;" edge="1" parent="1" source="Od82hylRiGXCnDKOlgIq-13" target="Od82hylRiGXCnDKOlgIq-15">
          <mxGeometry relative="1" as="geometry" />
        </mxCell>
        <mxCell id="Od82hylRiGXCnDKOlgIq-13" value="README.md" style="whiteSpace=wrap;html=1;strokeWidth=2;sketch=1;rounded=1;" vertex="1" parent="1">
          <mxGeometry x="260" y="230" width="120" height="30" as="geometry" />
        </mxCell>
        <mxCell id="Od82hylRiGXCnDKOlgIq-40" style="edgeStyle=orthogonalEdgeStyle;rounded=1;orthogonalLoop=1;jettySize=auto;html=1;exitX=0.5;exitY=1;exitDx=0;exitDy=0;entryX=0.5;entryY=0;entryDx=0;entryDy=0;sketch=1;curved=1;" edge="1" parent="1" source="Od82hylRiGXCnDKOlgIq-15" target="Od82hylRiGXCnDKOlgIq-36">
          <mxGeometry relative="1" as="geometry" />
        </mxCell>
        <mxCell id="Od82hylRiGXCnDKOlgIq-15" value="package install" style="whiteSpace=wrap;html=1;strokeWidth=2;sketch=1;rounded=1;" vertex="1" parent="1">
          <mxGeometry x="260" y="280" width="120" height="30" as="geometry" />
        </mxCell>
        <mxCell id="Od82hylRiGXCnDKOlgIq-20" value="" style="edgeStyle=orthogonalEdgeStyle;rounded=1;orthogonalLoop=1;jettySize=auto;html=1;entryX=0.5;entryY=0;entryDx=0;entryDy=0;sketch=1;curved=1;" edge="1" parent="1" source="Od82hylRiGXCnDKOlgIq-17" target="Od82hylRiGXCnDKOlgIq-25">
          <mxGeometry relative="1" as="geometry">
            <mxPoint x="320" y="630" as="targetPoint" />
          </mxGeometry>
        </mxCell>
        <mxCell id="Od82hylRiGXCnDKOlgIq-31" style="edgeStyle=orthogonalEdgeStyle;rounded=1;orthogonalLoop=1;jettySize=auto;html=1;entryX=0.5;entryY=0;entryDx=0;entryDy=0;sketch=1;curved=1;" edge="1" parent="1" source="Od82hylRiGXCnDKOlgIq-17" target="Od82hylRiGXCnDKOlgIq-29">
          <mxGeometry relative="1" as="geometry" />
        </mxCell>
        <mxCell id="Od82hylRiGXCnDKOlgIq-32" style="edgeStyle=orthogonalEdgeStyle;rounded=1;orthogonalLoop=1;jettySize=auto;html=1;exitX=0;exitY=0.5;exitDx=0;exitDy=0;entryX=0.5;entryY=0;entryDx=0;entryDy=0;sketch=1;curved=1;" edge="1" parent="1" source="Od82hylRiGXCnDKOlgIq-17" target="Od82hylRiGXCnDKOlgIq-30">
          <mxGeometry relative="1" as="geometry" />
        </mxCell>
        <mxCell id="Od82hylRiGXCnDKOlgIq-17" value="server environment" style="whiteSpace=wrap;html=1;strokeWidth=2;sketch=1;rounded=1;" vertex="1" parent="1">
          <mxGeometry x="260" y="450" width="120" height="30" as="geometry" />
        </mxCell>
        <mxCell id="Od82hylRiGXCnDKOlgIq-45" style="edgeStyle=orthogonalEdgeStyle;rounded=1;orthogonalLoop=1;jettySize=auto;html=1;exitX=0.5;exitY=1;exitDx=0;exitDy=0;entryX=0.5;entryY=0;entryDx=0;entryDy=0;endArrow=classic;endFill=1;sketch=1;curved=1;" edge="1" parent="1" source="Od82hylRiGXCnDKOlgIq-25" target="liDpOr1H3O13KfIpUHqW-1">
          <mxGeometry relative="1" as="geometry">
            <mxPoint x="320" y="595" as="targetPoint" />
          </mxGeometry>
        </mxCell>
        <mxCell id="Od82hylRiGXCnDKOlgIq-25" value="staging" style="whiteSpace=wrap;html=1;strokeWidth=2;sketch=1;rounded=1;" vertex="1" parent="1">
          <mxGeometry x="260" y="500" width="120" height="30" as="geometry" />
        </mxCell>
        <mxCell id="Od82hylRiGXCnDKOlgIq-29" value="prod" style="whiteSpace=wrap;html=1;strokeWidth=2;sketch=1;rounded=1;" vertex="1" parent="1">
          <mxGeometry x="410" y="500" width="120" height="30" as="geometry" />
        </mxCell>
        <mxCell id="Od82hylRiGXCnDKOlgIq-30" value="docker" style="whiteSpace=wrap;html=1;strokeWidth=2;sketch=1;rounded=1;" vertex="1" parent="1">
          <mxGeometry x="110" y="500" width="120" height="30" as="geometry" />
        </mxCell>
        <mxCell id="Od82hylRiGXCnDKOlgIq-34" style="edgeStyle=orthogonalEdgeStyle;rounded=1;orthogonalLoop=1;jettySize=auto;html=1;entryX=0.5;entryY=0;entryDx=0;entryDy=0;sketch=1;curved=1;" edge="1" parent="1" source="Od82hylRiGXCnDKOlgIq-36" target="Od82hylRiGXCnDKOlgIq-38">
          <mxGeometry relative="1" as="geometry" />
        </mxCell>
        <mxCell id="Od82hylRiGXCnDKOlgIq-35" style="edgeStyle=orthogonalEdgeStyle;rounded=1;orthogonalLoop=1;jettySize=auto;html=1;exitX=0;exitY=0.5;exitDx=0;exitDy=0;entryX=0.5;entryY=0;entryDx=0;entryDy=0;sketch=1;curved=1;" edge="1" parent="1" source="Od82hylRiGXCnDKOlgIq-36" target="Od82hylRiGXCnDKOlgIq-39">
          <mxGeometry relative="1" as="geometry" />
        </mxCell>
        <mxCell id="Od82hylRiGXCnDKOlgIq-36" value="environment mode" style="whiteSpace=wrap;html=1;strokeWidth=2;sketch=1;rounded=1;" vertex="1" parent="1">
          <mxGeometry x="260" y="330" width="120" height="30" as="geometry" />
        </mxCell>
        <mxCell id="Od82hylRiGXCnDKOlgIq-49" style="edgeStyle=orthogonalEdgeStyle;curved=1;rounded=1;sketch=1;hachureGap=4;jiggle=2;orthogonalLoop=1;jettySize=auto;html=1;exitX=0;exitY=0.5;exitDx=0;exitDy=0;entryX=0.5;entryY=0;entryDx=0;entryDy=0;fontFamily=Architects Daughter;fontSource=https%3A%2F%2Ffonts.googleapis.com%2Fcss%3Ffamily%3DArchitects%2BDaughter;fontSize=16;" edge="1" parent="1" source="Od82hylRiGXCnDKOlgIq-38" target="Od82hylRiGXCnDKOlgIq-17">
          <mxGeometry relative="1" as="geometry" />
        </mxCell>
        <mxCell id="Od82hylRiGXCnDKOlgIq-38" value="production" style="whiteSpace=wrap;html=1;strokeWidth=2;sketch=1;rounded=1;" vertex="1" parent="1">
          <mxGeometry x="390" y="380" width="120" height="30" as="geometry" />
        </mxCell>
        <mxCell id="Od82hylRiGXCnDKOlgIq-41" style="edgeStyle=orthogonalEdgeStyle;rounded=1;orthogonalLoop=1;jettySize=auto;html=1;entryX=0.5;entryY=0;entryDx=0;entryDy=0;sketch=1;curved=1;" edge="1" parent="1" source="Od82hylRiGXCnDKOlgIq-39" target="Od82hylRiGXCnDKOlgIq-17">
          <mxGeometry relative="1" as="geometry" />
        </mxCell>
        <mxCell id="Od82hylRiGXCnDKOlgIq-39" value="development" style="whiteSpace=wrap;html=1;strokeWidth=2;sketch=1;rounded=1;" vertex="1" parent="1">
          <mxGeometry x="120" y="380" width="120" height="30" as="geometry" />
        </mxCell>
        <mxCell id="Od82hylRiGXCnDKOlgIq-47" value="token&lt;br&gt;userId&lt;br&gt;liveId&lt;br&gt;njId&lt;br&gt;..." style="strokeWidth=2;html=1;shape=mxgraph.flowchart.annotation_2;align=left;labelPosition=right;pointerEvents=1;sketch=1;rounded=1;" vertex="1" parent="1">
          <mxGeometry x="790" y="313" width="60" height="100" as="geometry" />
        </mxCell>
        <mxCell id="Od82hylRiGXCnDKOlgIq-51" value="&lt;span style=&quot;font-family: Helvetica; font-size: 12px;&quot;&gt;skeleton&lt;/span&gt;" style="strokeWidth=2;html=1;shape=mxgraph.flowchart.terminator;whiteSpace=wrap;rounded=1;sketch=1;hachureGap=4;jiggle=2;fontFamily=Architects Daughter;fontSource=https%3A%2F%2Ffonts.googleapis.com%2Fcss%3Ffamily%3DArchitects%2BDaughter;fontSize=20;" vertex="1" parent="1">
          <mxGeometry x="690" y="348" width="100" height="30" as="geometry" />
        </mxCell>
        <mxCell id="liDpOr1H3O13KfIpUHqW-12" style="edgeStyle=orthogonalEdgeStyle;curved=1;rounded=1;sketch=1;hachureGap=4;jiggle=2;orthogonalLoop=1;jettySize=auto;html=1;exitX=0.5;exitY=1;exitDx=0;exitDy=0;entryX=0.5;entryY=1;entryDx=0;entryDy=0;fontFamily=Architects Daughter;fontSource=https%3A%2F%2Ffonts.googleapis.com%2Fcss%3Ffamily%3DArchitects%2BDaughter;fontSize=16;" edge="1" parent="1" source="liDpOr1H3O13KfIpUHqW-1" target="liDpOr1H3O13KfIpUHqW-10">
          <mxGeometry relative="1" as="geometry" />
        </mxCell>
        <mxCell id="liDpOr1H3O13KfIpUHqW-13" style="edgeStyle=orthogonalEdgeStyle;curved=1;rounded=1;sketch=1;hachureGap=4;jiggle=2;orthogonalLoop=1;jettySize=auto;html=1;exitX=0.5;exitY=1;exitDx=0;exitDy=0;entryX=0.5;entryY=1;entryDx=0;entryDy=0;fontFamily=Architects Daughter;fontSource=https%3A%2F%2Ffonts.googleapis.com%2Fcss%3Ffamily%3DArchitects%2BDaughter;fontSize=16;" edge="1" parent="1" source="liDpOr1H3O13KfIpUHqW-1" target="liDpOr1H3O13KfIpUHqW-9">
          <mxGeometry relative="1" as="geometry" />
        </mxCell>
        <mxCell id="liDpOr1H3O13KfIpUHqW-14" style="edgeStyle=orthogonalEdgeStyle;curved=1;rounded=1;sketch=1;hachureGap=4;jiggle=2;orthogonalLoop=1;jettySize=auto;html=1;exitX=0.5;exitY=1;exitDx=0;exitDy=0;entryX=0.5;entryY=1;entryDx=0;entryDy=0;fontFamily=Architects Daughter;fontSource=https%3A%2F%2Ffonts.googleapis.com%2Fcss%3Ffamily%3DArchitects%2BDaughter;fontSize=16;" edge="1" parent="1" source="liDpOr1H3O13KfIpUHqW-1" target="liDpOr1H3O13KfIpUHqW-11">
          <mxGeometry relative="1" as="geometry" />
        </mxCell>
        <mxCell id="liDpOr1H3O13KfIpUHqW-15" style="edgeStyle=orthogonalEdgeStyle;curved=1;rounded=1;sketch=1;hachureGap=4;jiggle=2;orthogonalLoop=1;jettySize=auto;html=1;exitX=0.5;exitY=1;exitDx=0;exitDy=0;entryX=0.5;entryY=1;entryDx=0;entryDy=0;fontFamily=Architects Daughter;fontSource=https%3A%2F%2Ffonts.googleapis.com%2Fcss%3Ffamily%3DArchitects%2BDaughter;fontSize=16;" edge="1" parent="1" source="liDpOr1H3O13KfIpUHqW-1" target="liDpOr1H3O13KfIpUHqW-4">
          <mxGeometry relative="1" as="geometry" />
        </mxCell>
        <mxCell id="liDpOr1H3O13KfIpUHqW-16" style="edgeStyle=orthogonalEdgeStyle;curved=1;rounded=1;sketch=1;hachureGap=4;jiggle=2;orthogonalLoop=1;jettySize=auto;html=1;exitX=0.5;exitY=1;exitDx=0;exitDy=0;entryX=0.5;entryY=1;entryDx=0;entryDy=0;fontFamily=Architects Daughter;fontSource=https%3A%2F%2Ffonts.googleapis.com%2Fcss%3Ffamily%3DArchitects%2BDaughter;fontSize=16;" edge="1" parent="1" source="liDpOr1H3O13KfIpUHqW-1" target="liDpOr1H3O13KfIpUHqW-7">
          <mxGeometry relative="1" as="geometry" />
        </mxCell>
        <mxCell id="liDpOr1H3O13KfIpUHqW-17" style="edgeStyle=orthogonalEdgeStyle;curved=1;rounded=1;sketch=1;hachureGap=4;jiggle=2;orthogonalLoop=1;jettySize=auto;html=1;exitX=0.5;exitY=1;exitDx=0;exitDy=0;fontFamily=Architects Daughter;fontSource=https%3A%2F%2Ffonts.googleapis.com%2Fcss%3Ffamily%3DArchitects%2BDaughter;fontSize=16;" edge="1" parent="1" source="liDpOr1H3O13KfIpUHqW-1" target="liDpOr1H3O13KfIpUHqW-8">
          <mxGeometry relative="1" as="geometry" />
        </mxCell>
        <mxCell id="liDpOr1H3O13KfIpUHqW-1" value="env dictionary" style="whiteSpace=wrap;html=1;strokeWidth=2;sketch=1;rounded=1;" vertex="1" parent="1">
          <mxGeometry x="260" y="550" width="120" height="30" as="geometry" />
        </mxCell>
        <mxCell id="liDpOr1H3O13KfIpUHqW-20" style="edgeStyle=orthogonalEdgeStyle;curved=1;rounded=1;sketch=1;hachureGap=4;jiggle=2;orthogonalLoop=1;jettySize=auto;html=1;exitX=0.5;exitY=0;exitDx=0;exitDy=0;fontFamily=Architects Daughter;fontSource=https%3A%2F%2Ffonts.googleapis.com%2Fcss%3Ffamily%3DArchitects%2BDaughter;fontSize=16;" edge="1" parent="1" source="liDpOr1H3O13KfIpUHqW-4">
          <mxGeometry relative="1" as="geometry">
            <mxPoint x="740" y="380" as="targetPoint" />
          </mxGeometry>
        </mxCell>
        <mxCell id="liDpOr1H3O13KfIpUHqW-4" value="npm scripts&lt;br&gt;start:docker" style="whiteSpace=wrap;html=1;strokeWidth=2;sketch=1;rounded=1;" vertex="1" parent="1">
          <mxGeometry x="570" y="500" width="120" height="30" as="geometry" />
        </mxCell>
        <mxCell id="liDpOr1H3O13KfIpUHqW-18" style="edgeStyle=orthogonalEdgeStyle;curved=1;rounded=1;sketch=1;hachureGap=4;jiggle=2;orthogonalLoop=1;jettySize=auto;html=1;exitX=0.5;exitY=0;exitDx=0;exitDy=0;entryX=0.5;entryY=1;entryDx=0;entryDy=0;entryPerimeter=0;fontFamily=Architects Daughter;fontSource=https%3A%2F%2Ffonts.googleapis.com%2Fcss%3Ffamily%3DArchitects%2BDaughter;fontSize=16;" edge="1" parent="1" source="liDpOr1H3O13KfIpUHqW-7" target="Od82hylRiGXCnDKOlgIq-51">
          <mxGeometry relative="1" as="geometry" />
        </mxCell>
        <mxCell id="liDpOr1H3O13KfIpUHqW-7" value="npm scripts&lt;br&gt;start:pre" style="whiteSpace=wrap;html=1;strokeWidth=2;sketch=1;rounded=1;" vertex="1" parent="1">
          <mxGeometry x="720" y="500" width="120" height="30" as="geometry" />
        </mxCell>
        <mxCell id="liDpOr1H3O13KfIpUHqW-21" style="edgeStyle=orthogonalEdgeStyle;curved=1;rounded=1;sketch=1;hachureGap=4;jiggle=2;orthogonalLoop=1;jettySize=auto;html=1;exitX=0.5;exitY=0;exitDx=0;exitDy=0;fontFamily=Architects Daughter;fontSource=https%3A%2F%2Ffonts.googleapis.com%2Fcss%3Ffamily%3DArchitects%2BDaughter;fontSize=16;" edge="1" parent="1" source="liDpOr1H3O13KfIpUHqW-8">
          <mxGeometry relative="1" as="geometry">
            <mxPoint x="740" y="380" as="targetPoint" />
          </mxGeometry>
        </mxCell>
        <mxCell id="liDpOr1H3O13KfIpUHqW-8" value="npm scripts&lt;br&gt;start:prod" style="whiteSpace=wrap;html=1;strokeWidth=2;sketch=1;rounded=1;" vertex="1" parent="1">
          <mxGeometry x="870" y="500" width="120" height="30" as="geometry" />
        </mxCell>
        <mxCell id="liDpOr1H3O13KfIpUHqW-9" value="npm scripts&lt;br&gt;build:docker" style="whiteSpace=wrap;html=1;strokeWidth=2;sketch=1;rounded=1;" vertex="1" parent="1">
          <mxGeometry x="570" y="550" width="120" height="30" as="geometry" />
        </mxCell>
        <mxCell id="liDpOr1H3O13KfIpUHqW-10" value="npm scripts&lt;br&gt;build:pre" style="whiteSpace=wrap;html=1;strokeWidth=2;sketch=1;rounded=1;" vertex="1" parent="1">
          <mxGeometry x="720" y="550" width="120" height="30" as="geometry" />
        </mxCell>
        <mxCell id="liDpOr1H3O13KfIpUHqW-11" value="npm scripts&lt;br&gt;build:prod" style="whiteSpace=wrap;html=1;strokeWidth=2;sketch=1;rounded=1;" vertex="1" parent="1">
          <mxGeometry x="870" y="550" width="120" height="30" as="geometry" />
        </mxCell>
      </root>
    </mxGraphModel>
  </diagram>
  <diagram id="PZwE9CUo5aN8m1aUoE3w" name="第 2 页">
    <mxGraphModel dx="949" dy="550" grid="1" gridSize="10" guides="1" tooltips="1" connect="1" arrows="1" fold="1" page="1" pageScale="1" pageWidth="1169" pageHeight="827" math="0" shadow="1">
      <root>
        <mxCell id="0" />
        <mxCell id="1" parent="0" />
        <mxCell id="3jYYAUe2Z1BjAlj0n_Ef-1" value="" style="edgeStyle=orthogonalEdgeStyle;rounded=1;orthogonalLoop=1;jettySize=auto;html=1;sketch=1;curved=1;" edge="1" parent="1" source="3jYYAUe2Z1BjAlj0n_Ef-2" target="3jYYAUe2Z1BjAlj0n_Ef-4">
          <mxGeometry relative="1" as="geometry" />
        </mxCell>
        <mxCell id="3jYYAUe2Z1BjAlj0n_Ef-2" value="open new project" style="strokeWidth=2;html=1;shape=mxgraph.flowchart.start_1;whiteSpace=wrap;sketch=1;rounded=1;" vertex="1" parent="1">
          <mxGeometry x="525" y="180" width="120" height="39" as="geometry" />
        </mxCell>
        <mxCell id="3jYYAUe2Z1BjAlj0n_Ef-3" value="" style="edgeStyle=orthogonalEdgeStyle;rounded=1;orthogonalLoop=1;jettySize=auto;html=1;sketch=1;curved=1;" edge="1" parent="1" source="3jYYAUe2Z1BjAlj0n_Ef-4" target="3jYYAUe2Z1BjAlj0n_Ef-6">
          <mxGeometry relative="1" as="geometry" />
        </mxCell>
        <mxCell id="3jYYAUe2Z1BjAlj0n_Ef-4" value="README.md" style="whiteSpace=wrap;html=1;strokeWidth=2;sketch=1;rounded=1;" vertex="1" parent="1">
          <mxGeometry x="525" y="239" width="120" height="30" as="geometry" />
        </mxCell>
        <mxCell id="3jYYAUe2Z1BjAlj0n_Ef-5" style="edgeStyle=orthogonalEdgeStyle;rounded=1;orthogonalLoop=1;jettySize=auto;html=1;exitX=0.5;exitY=1;exitDx=0;exitDy=0;entryX=0.5;entryY=0;entryDx=0;entryDy=0;sketch=1;curved=1;" edge="1" parent="1" source="3jYYAUe2Z1BjAlj0n_Ef-6" target="3jYYAUe2Z1BjAlj0n_Ef-9">
          <mxGeometry relative="1" as="geometry" />
        </mxCell>
        <mxCell id="3jYYAUe2Z1BjAlj0n_Ef-6" value="package install" style="whiteSpace=wrap;html=1;strokeWidth=2;sketch=1;rounded=1;" vertex="1" parent="1">
          <mxGeometry x="525" y="289" width="120" height="30" as="geometry" />
        </mxCell>
        <mxCell id="3jYYAUe2Z1BjAlj0n_Ef-7" style="edgeStyle=orthogonalEdgeStyle;rounded=1;orthogonalLoop=1;jettySize=auto;html=1;entryX=0.5;entryY=0;entryDx=0;entryDy=0;sketch=1;curved=1;" edge="1" parent="1" source="3jYYAUe2Z1BjAlj0n_Ef-9" target="3jYYAUe2Z1BjAlj0n_Ef-10">
          <mxGeometry relative="1" as="geometry" />
        </mxCell>
        <mxCell id="3jYYAUe2Z1BjAlj0n_Ef-8" style="edgeStyle=orthogonalEdgeStyle;rounded=1;orthogonalLoop=1;jettySize=auto;html=1;exitX=0;exitY=0.5;exitDx=0;exitDy=0;entryX=0.5;entryY=0;entryDx=0;entryDy=0;sketch=1;curved=1;" edge="1" parent="1" source="3jYYAUe2Z1BjAlj0n_Ef-9" target="3jYYAUe2Z1BjAlj0n_Ef-11">
          <mxGeometry relative="1" as="geometry" />
        </mxCell>
        <mxCell id="NUbY50EU-GU1DeH5i0-7-1" style="edgeStyle=orthogonalEdgeStyle;curved=1;rounded=1;sketch=1;hachureGap=4;jiggle=2;orthogonalLoop=1;jettySize=auto;html=1;exitX=0.5;exitY=1;exitDx=0;exitDy=0;fontFamily=Architects Daughter;fontSource=https%3A%2F%2Ffonts.googleapis.com%2Fcss%3Ffamily%3DArchitects%2BDaughter;fontSize=16;" edge="1" parent="1" source="3jYYAUe2Z1BjAlj0n_Ef-9" target="3jYYAUe2Z1BjAlj0n_Ef-12">
          <mxGeometry relative="1" as="geometry" />
        </mxCell>
        <mxCell id="NUbY50EU-GU1DeH5i0-7-2" style="edgeStyle=orthogonalEdgeStyle;curved=1;rounded=1;sketch=1;hachureGap=4;jiggle=2;orthogonalLoop=1;jettySize=auto;html=1;exitX=0.5;exitY=1;exitDx=0;exitDy=0;entryX=0.5;entryY=0;entryDx=0;entryDy=0;fontFamily=Architects Daughter;fontSource=https%3A%2F%2Ffonts.googleapis.com%2Fcss%3Ffamily%3DArchitects%2BDaughter;fontSize=16;" edge="1" parent="1" source="3jYYAUe2Z1BjAlj0n_Ef-9" target="3jYYAUe2Z1BjAlj0n_Ef-13">
          <mxGeometry relative="1" as="geometry" />
        </mxCell>
        <mxCell id="NUbY50EU-GU1DeH5i0-7-3" style="edgeStyle=orthogonalEdgeStyle;curved=1;rounded=1;sketch=1;hachureGap=4;jiggle=2;orthogonalLoop=1;jettySize=auto;html=1;exitX=0.5;exitY=1;exitDx=0;exitDy=0;entryX=0.5;entryY=0;entryDx=0;entryDy=0;fontFamily=Architects Daughter;fontSource=https%3A%2F%2Ffonts.googleapis.com%2Fcss%3Ffamily%3DArchitects%2BDaughter;fontSize=16;" edge="1" parent="1" source="3jYYAUe2Z1BjAlj0n_Ef-9" target="3jYYAUe2Z1BjAlj0n_Ef-14">
          <mxGeometry relative="1" as="geometry" />
        </mxCell>
        <mxCell id="3jYYAUe2Z1BjAlj0n_Ef-9" value="dotenv" style="whiteSpace=wrap;html=1;strokeWidth=2;sketch=1;rounded=1;" vertex="1" parent="1">
          <mxGeometry x="525" y="339" width="120" height="30" as="geometry" />
        </mxCell>
        <mxCell id="3jYYAUe2Z1BjAlj0n_Ef-10" value=".env.local" style="whiteSpace=wrap;html=1;strokeWidth=2;sketch=1;rounded=1;" vertex="1" parent="1">
          <mxGeometry x="790" y="410" width="120" height="30" as="geometry" />
        </mxCell>
        <mxCell id="3jYYAUe2Z1BjAlj0n_Ef-11" value=".env" style="whiteSpace=wrap;html=1;strokeWidth=2;sketch=1;rounded=1;" vertex="1" parent="1">
          <mxGeometry x="260" y="410" width="120" height="30" as="geometry" />
        </mxCell>
        <mxCell id="3jYYAUe2Z1BjAlj0n_Ef-12" value=".env.test" style="whiteSpace=wrap;html=1;strokeWidth=2;sketch=1;rounded=1;" vertex="1" parent="1">
          <mxGeometry x="390" y="410" width="120" height="30" as="geometry" />
        </mxCell>
        <mxCell id="NUbY50EU-GU1DeH5i0-7-7" style="edgeStyle=orthogonalEdgeStyle;curved=1;rounded=1;sketch=1;hachureGap=4;jiggle=2;orthogonalLoop=1;jettySize=auto;html=1;exitX=0.5;exitY=1;exitDx=0;exitDy=0;entryX=0.5;entryY=0;entryDx=0;entryDy=0;fontFamily=Architects Daughter;fontSource=https%3A%2F%2Ffonts.googleapis.com%2Fcss%3Ffamily%3DArchitects%2BDaughter;fontSize=16;" edge="1" parent="1" source="3jYYAUe2Z1BjAlj0n_Ef-13" target="NUbY50EU-GU1DeH5i0-7-5">
          <mxGeometry relative="1" as="geometry" />
        </mxCell>
        <mxCell id="NUbY50EU-GU1DeH5i0-7-8" style="edgeStyle=orthogonalEdgeStyle;curved=1;rounded=1;sketch=1;hachureGap=4;jiggle=2;orthogonalLoop=1;jettySize=auto;html=1;exitX=0.5;exitY=1;exitDx=0;exitDy=0;entryX=0.5;entryY=0;entryDx=0;entryDy=0;fontFamily=Architects Daughter;fontSource=https%3A%2F%2Ffonts.googleapis.com%2Fcss%3Ffamily%3DArchitects%2BDaughter;fontSize=16;" edge="1" parent="1" source="3jYYAUe2Z1BjAlj0n_Ef-13" target="NUbY50EU-GU1DeH5i0-7-6">
          <mxGeometry relative="1" as="geometry" />
        </mxCell>
        <mxCell id="3jYYAUe2Z1BjAlj0n_Ef-13" value=".env.staging" style="whiteSpace=wrap;html=1;strokeWidth=2;sketch=1;rounded=1;" vertex="1" parent="1">
          <mxGeometry x="525" y="410" width="120" height="30" as="geometry" />
        </mxCell>
        <mxCell id="3jYYAUe2Z1BjAlj0n_Ef-14" value=".env.production" style="whiteSpace=wrap;html=1;strokeWidth=2;sketch=1;rounded=1;" vertex="1" parent="1">
          <mxGeometry x="660" y="410" width="120" height="30" as="geometry" />
        </mxCell>
        <mxCell id="7Pw4stxviv8Ju6PuF6YO-2" style="edgeStyle=orthogonalEdgeStyle;curved=1;rounded=1;sketch=1;hachureGap=4;jiggle=2;orthogonalLoop=1;jettySize=auto;html=1;exitX=0.5;exitY=1;exitDx=0;exitDy=0;entryX=0.5;entryY=0;entryDx=0;entryDy=0;entryPerimeter=0;fontFamily=Architects Daughter;fontSource=https%3A%2F%2Ffonts.googleapis.com%2Fcss%3Ffamily%3DArchitects%2BDaughter;fontSize=16;" edge="1" parent="1" source="NUbY50EU-GU1DeH5i0-7-5" target="7Pw4stxviv8Ju6PuF6YO-1">
          <mxGeometry relative="1" as="geometry" />
        </mxCell>
        <mxCell id="NUbY50EU-GU1DeH5i0-7-5" value="yarn start -m" style="whiteSpace=wrap;html=1;strokeWidth=2;sketch=1;rounded=1;" vertex="1" parent="1">
          <mxGeometry x="460" y="470" width="120" height="30" as="geometry" />
        </mxCell>
        <mxCell id="7Pw4stxviv8Ju6PuF6YO-3" style="edgeStyle=orthogonalEdgeStyle;curved=1;rounded=1;sketch=1;hachureGap=4;jiggle=2;orthogonalLoop=1;jettySize=auto;html=1;exitX=0.5;exitY=1;exitDx=0;exitDy=0;entryX=0.5;entryY=0;entryDx=0;entryDy=0;entryPerimeter=0;fontFamily=Architects Daughter;fontSource=https%3A%2F%2Ffonts.googleapis.com%2Fcss%3Ffamily%3DArchitects%2BDaughter;fontSize=16;" edge="1" parent="1" source="NUbY50EU-GU1DeH5i0-7-6" target="7Pw4stxviv8Ju6PuF6YO-1">
          <mxGeometry relative="1" as="geometry" />
        </mxCell>
        <mxCell id="NUbY50EU-GU1DeH5i0-7-6" value="yarn build -m" style="whiteSpace=wrap;html=1;strokeWidth=2;sketch=1;rounded=1;" vertex="1" parent="1">
          <mxGeometry x="590" y="470" width="120" height="30" as="geometry" />
        </mxCell>
        <mxCell id="7Pw4stxviv8Ju6PuF6YO-1" value="&lt;font face=&quot;Helvetica&quot;&gt;&lt;span style=&quot;font-size: 12px;&quot;&gt;wishlist&lt;/span&gt;&lt;/font&gt;" style="strokeWidth=2;html=1;shape=mxgraph.flowchart.terminator;whiteSpace=wrap;rounded=1;sketch=1;hachureGap=4;jiggle=2;fontFamily=Architects Daughter;fontSource=https%3A%2F%2Ffonts.googleapis.com%2Fcss%3Ffamily%3DArchitects%2BDaughter;fontSize=20;" vertex="1" parent="1">
          <mxGeometry x="535" y="530" width="100" height="30" as="geometry" />
        </mxCell>
      </root>
    </mxGraphModel>
  </diagram>
</mxfile>
